<svg width="124" height="33" viewBox="0 0 124 33" fill="none" xmlns="http://www.w3.org/2000/svg">
<path d="M2.4317 24.8856V23.0618C1.62801 23.0618 0.919057 23.5878 0.686162 24.3571C0.453266 25.1263 0.751334 25.9572 1.42004 26.403L2.4317 24.8856ZM8.71522 31.2665L10.2327 32.2782L12.256 29.2432L10.7385 28.2315L8.71522 31.2665ZM52.7685 23.0618H2.4317V26.7094H52.7685V23.0618ZM1.42004 26.403L8.71522 31.2665L10.7385 28.2315L3.44336 23.3681L1.42004 26.403Z" fill="#3C57DD"/>
<g filter="url(#filter0_d_124_110)">
<path d="M111.859 9.32245L111.859 11.1462C112.663 11.1462 113.372 10.6202 113.605 9.85095C113.838 9.08175 113.54 8.25076 112.871 7.80496L111.859 9.32245ZM105.576 2.9415L104.058 1.92984L102.035 4.96482L103.553 5.97648L105.576 2.9415ZM47.4187 11.1463L111.859 11.1462L111.859 7.49865L47.4187 7.49874L47.4187 11.1463ZM112.871 7.80496L105.576 2.9415L103.553 5.97648L110.848 10.8399L112.871 7.80496Z" fill="#75DFB9"/>
</g>
<path d="M9.1136 20.2355C7.51225 20.2355 6.07573 20.0314 4.80407 19.6232C3.5481 19.1993 2.55118 18.6263 1.8133 17.9041L4.59213 15.4314C5.14161 15.8867 5.84809 16.2557 6.71157 16.5382C7.57504 16.8051 8.50132 16.9386 9.49039 16.9386C9.72589 16.9386 9.94568 16.9307 10.1498 16.915C10.3696 16.8836 10.5501 16.8365 10.6914 16.7737C10.8484 16.7109 10.9662 16.6403 11.0446 16.5618C11.1388 16.4833 11.1859 16.3812 11.1859 16.2557C11.1859 16.083 11.0446 15.9495 10.7621 15.8553C10.4952 15.7454 10.1184 15.6591 9.63169 15.5963C9.1607 15.5335 8.68971 15.4628 8.21873 15.3843C7.26105 15.243 6.42898 15.086 5.72249 14.9133C5.03171 14.7249 4.42728 14.4738 3.90919 14.1598C3.43821 13.8301 3.06142 13.4297 2.77882 12.9587C2.49623 12.4878 2.35494 11.9226 2.35494 11.2632C2.35494 10.6038 2.52763 10.0229 2.87302 9.52053C3.23411 9.00245 3.7208 8.57071 4.33308 8.22532C4.96107 7.86423 5.66755 7.59734 6.45252 7.42464C7.2532 7.23625 8.07743 7.14205 8.92521 7.14205C9.78868 7.14205 10.6286 7.2127 11.445 7.35399C12.2771 7.47959 13.062 7.67583 13.7999 7.94273C14.5535 8.20962 15.2286 8.55501 15.8252 8.9789L13.4702 11.7813C13.1091 11.5458 12.6617 11.3181 12.1279 11.0983C11.6098 10.8785 11.0289 10.698 10.3853 10.5567C9.75728 10.4154 9.1136 10.3448 8.45422 10.3448C8.21873 10.3448 8.00678 10.3605 7.81839 10.3919C7.64569 10.4076 7.48085 10.4468 7.32385 10.5096C7.18255 10.5567 7.07266 10.6195 6.99416 10.698C6.93136 10.7608 6.89996 10.8393 6.89996 10.9335C6.89996 11.012 6.92351 11.0983 6.97061 11.1925C7.01771 11.271 7.10406 11.3417 7.22965 11.4045C7.44945 11.5144 7.79484 11.6086 8.26583 11.6871C8.75251 11.7656 9.32555 11.8676 9.98493 11.9932C11.2566 12.213 12.2928 12.4721 13.0934 12.7703C13.9098 13.0529 14.5378 13.3748 14.9774 13.7359C15.3228 14.0342 15.5661 14.3639 15.7074 14.7249C15.8487 15.086 15.9194 15.4864 15.9194 15.926C15.9194 16.758 15.6368 17.5038 15.0716 18.1632C14.5064 18.8068 13.7214 19.3171 12.7167 19.6939C11.7119 20.0549 10.5109 20.2355 9.1136 20.2355ZM15.4752 20V7.40109H19.9025L20.138 10.5567L19.0076 10.8628C19.1646 10.1721 19.4943 9.55193 19.9967 9.00245C20.5148 8.43726 21.1663 7.98983 21.9513 7.66014C22.7363 7.31475 23.6155 7.14205 24.5888 7.14205C25.7035 7.14205 26.6533 7.36969 27.4383 7.82498C28.2233 8.28027 28.8277 8.90825 29.2516 9.70893C29.6755 10.4939 29.8874 11.4045 29.8874 12.4407V20H25.1069V13.3826C25.1069 12.8959 25.0127 12.4799 24.8243 12.1345C24.6359 11.7734 24.369 11.4987 24.0237 11.3103C23.6783 11.1219 23.2544 11.0198 22.752 11.0041C22.3438 11.0041 21.9827 11.0748 21.6687 11.2161C21.3547 11.3574 21.0957 11.5458 20.8916 11.7813C20.6875 12.0168 20.5305 12.268 20.4206 12.5349C20.3107 12.8017 20.2558 13.0608 20.2558 13.312V20H17.8773C17.1394 20 16.5664 20 16.1582 20C15.7657 20 15.538 20 15.4752 20ZM31.4229 20V7.40109H36.2035V20H31.4229ZM33.825 4.97551C32.9772 4.97551 32.31 4.77926 31.8233 4.38677C31.3523 3.99429 31.1168 3.43695 31.1168 2.71477C31.1168 2.05539 31.3601 1.51375 31.8468 1.08986C32.3335 0.665976 32.9929 0.454032 33.825 0.454032C34.6728 0.454032 35.3321 0.650276 35.8031 1.04276C36.2898 1.43525 36.5331 1.99259 36.5331 2.71477C36.5331 3.37415 36.2898 3.91579 35.8031 4.33968C35.3321 4.76356 34.6728 4.97551 33.825 4.97551ZM38.0238 25.1809V7.37754H42.451L42.7101 10.1799L41.7446 9.96797C41.8701 9.44989 42.1841 8.9789 42.6865 8.55501C43.2046 8.13112 43.864 7.79358 44.6647 7.54239C45.4653 7.2755 46.3602 7.14205 47.3493 7.14205C48.621 7.14205 49.7356 7.41679 50.6933 7.96628C51.6667 8.51576 52.4203 9.28504 52.954 10.2741C53.4878 11.2475 53.7547 12.3857 53.7547 13.6888C53.7547 14.9761 53.48 16.1144 52.9305 17.1034C52.381 18.0768 51.6117 18.8382 50.6227 19.3877C49.6493 19.9372 48.5189 20.2119 47.2316 20.2119C46.2739 20.2119 45.4104 20.0785 44.6411 19.8116C43.8718 19.529 43.236 19.1679 42.7336 18.7283C42.2312 18.273 41.9094 17.7785 41.7681 17.2447L42.8278 16.915V25.1809H38.0238ZM45.9128 16.3263C46.5879 16.3263 47.1531 16.2243 47.6083 16.0202C48.0793 15.8161 48.4404 15.5178 48.6916 15.1253C48.9428 14.7171 49.0684 14.2383 49.0684 13.6888C49.0684 13.1236 48.9428 12.6447 48.6916 12.2523C48.4404 11.8598 48.0793 11.5615 47.6083 11.3574C47.1374 11.1376 46.5722 11.0277 45.9128 11.0277C45.2534 11.0277 44.6804 11.1376 44.1937 11.3574C43.7227 11.5772 43.3538 11.8833 43.0869 12.2758C42.8357 12.6683 42.7101 13.1393 42.7101 13.6888C42.7101 14.2383 42.8357 14.7171 43.0869 15.1253C43.3538 15.5178 43.7227 15.8161 44.1937 16.0202C44.6804 16.2243 45.2534 16.3263 45.9128 16.3263Z" fill="#75DFB9"/>
<path d="M56.2123 27.104C54.6109 27.104 53.1744 26.8999 51.9028 26.4917C50.6468 26.0679 49.6499 25.4948 48.912 24.7726L51.6908 22.3C52.2403 22.7552 52.9468 23.1242 53.8103 23.4068C54.6737 23.6737 55.6 23.8071 56.5891 23.8071C56.8246 23.8071 57.0444 23.7993 57.2485 23.7836C57.4683 23.7522 57.6488 23.7051 57.7901 23.6423C57.9471 23.5795 58.0648 23.5088 58.1433 23.4303C58.2375 23.3518 58.2846 23.2498 58.2846 23.1242C58.2846 22.9515 58.1433 22.818 57.8608 22.7238C57.5939 22.6139 57.2171 22.5276 56.7304 22.4648C56.2594 22.402 55.7884 22.3314 55.3174 22.2529C54.3597 22.1116 53.5277 21.9546 52.8212 21.7819C52.1304 21.5935 51.526 21.3423 51.0079 21.0283C50.5369 20.6986 50.1601 20.2983 49.8775 19.8273C49.5949 19.3563 49.4536 18.7911 49.4536 18.1317C49.4536 17.4723 49.6263 16.8915 49.9717 16.3891C50.3328 15.871 50.8195 15.4392 51.4318 15.0939C52.0598 14.7328 52.7662 14.4659 53.5512 14.2932C54.3519 14.1048 55.1761 14.0106 56.0239 14.0106C56.8874 14.0106 57.7273 14.0812 58.5437 14.2225C59.3758 14.3481 60.1607 14.5444 60.8986 14.8113C61.6522 15.0782 62.3273 15.4235 62.9239 15.8474L60.5689 18.6498C60.2078 18.4143 59.7604 18.1867 59.2266 17.9669C58.7085 17.7471 58.1276 17.5665 57.484 17.4252C56.856 17.2839 56.2123 17.2133 55.5529 17.2133C55.3174 17.2133 55.1055 17.229 54.9171 17.2604C54.7444 17.2761 54.5795 17.3153 54.4225 17.3781C54.2812 17.4252 54.1714 17.488 54.0929 17.5665C54.0301 17.6293 53.9987 17.7078 53.9987 17.802C53.9987 17.8805 54.0222 17.9669 54.0693 18.0611C54.1164 18.1396 54.2028 18.2102 54.3283 18.273C54.5481 18.3829 54.8935 18.4771 55.3645 18.5556C55.8512 18.6341 56.4242 18.7362 57.0836 18.8617C58.3553 19.0815 59.3915 19.3406 60.1921 19.6389C61.0085 19.9215 61.6365 20.2433 62.0761 20.6044C62.4215 20.9027 62.6648 21.2324 62.8061 21.5935C62.9474 21.9546 63.0181 22.3549 63.0181 22.7945C63.0181 23.6266 62.7355 24.3723 62.1703 25.0317C61.6051 25.6754 60.8201 26.1856 59.8153 26.5624C58.8106 26.9235 57.6096 27.104 56.2123 27.104ZM64.976 26.8685L60.478 14.2696H65.5176L67.7312 21.7112L67.2603 21.6406L69.8036 15.659H72.8179L75.6438 21.6406L75.1728 21.6877L77.151 14.2696H82.2847L77.6691 26.8685H73.9012L70.8398 19.4976H71.9701L68.7674 26.8685H64.976ZM85.7382 27.0805C84.4038 27.0805 83.242 26.8057 82.2529 26.2562C81.2638 25.6911 80.4946 24.9218 79.9451 23.9484C79.4113 22.975 79.1444 21.8525 79.1444 20.5809C79.1444 19.2935 79.4191 18.1553 79.9686 17.1662C80.5181 16.1771 81.2795 15.4078 82.2529 14.8584C83.242 14.2932 84.4038 14.0106 85.7382 14.0106C86.4918 14.0106 87.1747 14.0969 87.787 14.2696C88.415 14.4423 88.9645 14.6778 89.4355 14.9761C89.9065 15.2587 90.2989 15.5727 90.6129 15.9181C90.9426 16.2635 91.1781 16.601 91.3194 16.9307L90.2362 17.0484V14.2696H94.9225V26.8685H90.1184V23.4774L91.131 23.8071C91.0368 24.2153 90.8327 24.6156 90.5187 25.0081C90.2048 25.4006 89.8123 25.7539 89.3413 26.0679C88.886 26.3661 88.3522 26.6095 87.7399 26.7979C87.1276 26.9863 86.4604 27.0805 85.7382 27.0805ZM87.057 23.1948C87.7321 23.1948 88.3051 23.0928 88.7761 22.8887C89.2471 22.6689 89.6082 22.3628 89.8594 21.9703C90.1106 21.5778 90.2362 21.1146 90.2362 20.5809C90.2362 20.0157 90.1106 19.5368 89.8594 19.1443C89.6082 18.7519 89.2471 18.4536 88.7761 18.2495C88.3051 18.0297 87.7321 17.9198 87.057 17.9198C86.3819 17.9198 85.801 18.0297 85.3143 18.2495C84.8433 18.4536 84.4744 18.7519 84.2075 19.1443C83.9563 19.5368 83.8307 20.0157 83.8307 20.5809C83.8307 21.1146 83.9563 21.5778 84.2075 21.9703C84.4744 22.3628 84.8433 22.6689 85.3143 22.8887C85.801 23.0928 86.3819 23.1948 87.057 23.1948ZM96.4602 32.0494V14.2461H100.887L101.146 17.0484L100.181 16.8365C100.307 16.3184 100.621 15.8474 101.123 15.4235C101.641 14.9997 102.3 14.6621 103.101 14.4109C103.902 14.144 104.797 14.0106 105.786 14.0106C107.057 14.0106 108.172 14.2853 109.13 14.8348C110.103 15.3843 110.857 16.1536 111.39 17.1426C111.924 18.116 112.191 19.2542 112.191 20.5573C112.191 21.8447 111.916 22.9829 111.367 23.972C110.817 24.9453 110.048 25.7068 109.059 26.2562C108.086 26.8057 106.955 27.0805 105.668 27.0805C104.71 27.0805 103.847 26.947 103.078 26.6801C102.308 26.3975 101.672 26.0365 101.17 25.5969C100.668 25.1416 100.346 24.647 100.205 24.1133L101.264 23.7836V32.0494H96.4602ZM104.349 23.1948C105.024 23.1948 105.589 23.0928 106.045 22.8887C106.516 22.6846 106.877 22.3863 107.128 21.9938C107.379 21.5856 107.505 21.1068 107.505 20.5573C107.505 19.9921 107.379 19.5133 107.128 19.1208C106.877 18.7283 106.516 18.43 106.045 18.2259C105.574 18.0061 105.009 17.8962 104.349 17.8962C103.69 17.8962 103.117 18.0061 102.63 18.2259C102.159 18.4457 101.79 18.7519 101.523 19.1443C101.272 19.5368 101.146 20.0078 101.146 20.5573C101.146 21.1068 101.272 21.5856 101.523 21.9938C101.79 22.3863 102.159 22.6846 102.63 22.8887C103.117 23.0928 103.69 23.1948 104.349 23.1948Z" fill="#3C57DD"/>
<defs>
<filter id="filter0_d_124_110" x="37.6917" y="1.92984" width="85.7185" height="28.6703" filterUnits="userSpaceOnUse" color-interpolation-filters="sRGB">
<feFlood flood-opacity="0" result="BackgroundImageFix"/>
<feColorMatrix in="SourceAlpha" type="matrix" values="0 0 0 0 0 0 0 0 0 0 0 0 0 0 0 0 0 0 127 0" result="hardAlpha"/>
<feOffset dy="9.72691"/>
<feGaussianBlur stdDeviation="4.86345"/>
<feComposite in2="hardAlpha" operator="out"/>
<feColorMatrix type="matrix" values="0 0 0 0 0 0 0 0 0 0 0 0 0 0 0 0 0 0 0.25 0"/>
<feBlend mode="normal" in2="BackgroundImageFix" result="effect1_dropShadow_124_110"/>
<feBlend mode="normal" in="SourceGraphic" in2="effect1_dropShadow_124_110" result="shape"/>
</filter>
</defs>
</svg>
