<svg width="32" height="32" viewBox="0 0 32 32" fill="none" xmlns="http://www.w3.org/2000/svg">
<path d="M26.3643 21.5716L12.0089 21.5716L22.5644 27.9049L20.1073 32L2.15951 21.2313C1.23918 20.6791 0.800355 19.5807 1.08685 18.5464C1.37335 17.512 2.31476 16.7959 3.38805 16.7959L28.8583 16.796C28.9791 16.796 29.0979 16.8049 29.2139 16.8223L26.3643 21.5716Z" fill="#75DFB9"/>
<path d="M3.03239 15.1778L5.882 10.4284L20.2375 10.4284L9.68198 4.09511L12.139 0L30.0868 10.7687C31.0072 11.3209 31.446 12.4193 31.1595 13.4536C30.873 14.488 29.9316 15.2041 28.8583 15.2041L3.38806 15.2041C3.26719 15.2041 3.14843 15.1951 3.03239 15.1778Z" fill="#3C57DD"/>
</svg>
